<?xml version="1.0" encoding="UTF-8"?>
<svg id="Layer_2" data-name="Layer 2" xmlns="http://www.w3.org/2000/svg" viewBox="0 0 505.95 142.03">
  <defs>
    <style>
      .cls-1 {
        fill: #333;
      }

      .cls-2 {
        fill: #d1be6b;
      }

      .cls-3 {
        fill: #075da5;
      }
    </style>
  </defs>
  <g id="Layer_1-2" data-name="Layer 1">
    <g>
      <g>
        <path class="cls-3" d="M56.74,27.75H0V0H93.12V23.43l-6.54,46.5H52.91l3.82-42.18Z"/>
        <path class="cls-3" d="M238.54,69.93h-42.06l-14.43-34.9-14.31,34.9h-42.06l20.84-42.06h-18.01V.12h107.18V27.87h-18.01l20.84,42.06Z"/>
        <path class="cls-2" d="M324.14,27.75h-56.74V0h93.12V23.43l-6.54,46.5h-33.67l3.82-42.18Z"/>
        <path class="cls-2" d="M505.95,69.93h-42.06l-14.43-34.9-14.31,34.9h-42.06l20.84-42.06h-18.01V.12h107.18V27.87h-18.01l20.84,42.06Z"/>
      </g>
      <g>
        <path class="cls-1" d="M52.59,100.54c-.13,12.42-8.39,19.32-17.97,22.45l-1.8-3.27c8.94-2.85,14.68-8.28,15.66-15.83h-13.65v-3.36h17.76Zm2.27,41.5c-6.2,0-10.57-4.05-10.57-9.8s4.36-9.84,10.57-9.84,10.61,4.32,10.61,9.84-4.45,9.8-10.61,9.8Zm0-16.15c-3.98,0-6.8,2.67-6.8,6.35s2.82,6.3,6.8,6.3,6.8-2.58,6.8-6.3-2.78-6.35-6.8-6.35Zm7.15-3.31v-6.26h-8.56v-3.45h8.56v-5.01h-8.13v-3.54h8.13v-6.07h3.68v24.34h-3.68Z"/>
        <path class="cls-1" d="M180.88,140.06v-14.4h-16.17v-3.54h36.03v3.54h-16.17v14.4h-3.68Zm3.89-36.48v.51c0,5.98,6.16,9.52,12.11,10.63l-1.5,3.4c-5.35-1.01-10.65-4.14-12.62-8.37-1.88,4.23-7.27,7.5-12.71,8.46l-1.45-3.4c6.03-1.1,12.19-4.74,12.19-10.72v-.51h-10.83v-3.36h25.46v3.36h-10.65Z"/>
        <path class="cls-1" d="M317.4,101.18c-.13,13.66-7.7,21.94-17.84,26.36-.77-1.15-1.5-2.25-2.18-3.4,9.5-3.82,15.15-10.76,15.92-19.41h-13.95v-3.54h18.06Zm10.78,13.48v21.99h-3.72v-38.32h3.72v12.79h6.63v3.54h-6.63Z"/>
        <path class="cls-1" d="M450.31,126.81c-3.98-2.07-8.13-6.49-9.37-10.67-.98,4.28-4.75,9.16-9.07,11.46l-2.35-2.99c5.73-3.13,9.46-8.6,9.46-16.65v-2.99h-8.38v-3.54h20.58v3.54h-8.34v2.71c0,8.19,4.06,13.11,9.58,16.1l-2.1,3.04Zm10.48-11.82v21.67h-3.72v-38.32h3.72v13.16h6.68v3.5h-6.68Z"/>
      </g>
    </g>
  </g>
</svg>